<?xml version="1.0" encoding="UTF-8" standalone="no"?>
<!-- Created with Inkscape (http://www.inkscape.org/) -->

<svg
   width="270mm"
   height="270mm"
   viewBox="0 0 270.00001 270"
   version="1.1"
   id="svg1"
   xml:space="preserve"
   inkscape:version="1.4.2 (f4327f4, 2025-05-13)"
   sodipodi:docname="bstockicon.svg"
   xmlns:inkscape="http://www.inkscape.org/namespaces/inkscape"
   xmlns:sodipodi="http://sodipodi.sourceforge.net/DTD/sodipodi-0.dtd"
   xmlns="http://www.w3.org/2000/svg"
   xmlns:svg="http://www.w3.org/2000/svg"><sodipodi:namedview
     id="namedview1"
     pagecolor="#ffffff"
     bordercolor="#000000"
     borderopacity="0.25"
     inkscape:showpageshadow="2"
     inkscape:pageopacity="0.0"
     inkscape:pagecheckerboard="0"
     inkscape:deskcolor="#d1d1d1"
     inkscape:document-units="mm"
     showguides="true"
     showgrid="false"
     inkscape:zoom="0.52473017"
     inkscape:cx="459.28367"
     inkscape:cy="492.63414"
     inkscape:window-width="1920"
     inkscape:window-height="1051"
     inkscape:window-x="-9"
     inkscape:window-y="-9"
     inkscape:window-maximized="1"
     inkscape:current-layer="layer1"><inkscape:grid
       id="grid16"
       units="mm"
       originx="0"
       originy="0"
       spacingx="1.0000001"
       spacingy="1"
       empcolor="#0099e5"
       empopacity="0.30196078"
       color="#0099e5"
       opacity="0.14901961"
       empspacing="5"
       enabled="true"
       visible="false" /></sodipodi:namedview><defs
     id="defs1"><linearGradient
       id="swatch19"
       inkscape:swatch="solid"><stop
         style="stop-color:#048cd4;stop-opacity:1;"
         offset="0"
         id="stop19" /></linearGradient></defs><rect
     style="fill:#0f1426;stroke-width:1;stroke-dasharray:none;paint-order:fill markers stroke;fill-opacity:1"
     id="rect18"
     width="270"
     height="270"
     x="0"
     y="0" /><g
     inkscape:groupmode="layer"
     id="layer2"
     inkscape:label="Layer 2" /><g
     inkscape:label="Layer 1"
     inkscape:groupmode="layer"
     id="layer1"><path
       style="display:inline;fill:#cfd4ff;stroke-width:0.991788;stroke-dasharray:none;paint-order:fill markers stroke;fill-opacity:1"
       d="m 90.446894,184.80655 c 1.21564,3.74731 4.02996,5.93728 7.93057,6.1712 3.298776,0.19783 5.773506,-0.92027 7.745436,-3.49941 1.75707,-2.29809 1.72513,-2.00993 1.87913,-16.9555 0.13787,-13.38103 0.14652,-13.55586 0.73,-14.74471 0.95317,-1.94214 2.29126,-3.30126 4.15929,-4.22462 1.49312,-0.73804 1.97672,-0.84664 3.72077,-0.83544 3.69817,0.0238 6.81314,1.90074 8.34196,5.02665 0.72208,1.47641 0.73557,1.59246 0.87714,7.54718 0.13393,5.6333 0.1855,6.1338 0.75271,7.30457 0.90762,1.87343 2.71195,3.74004 4.41904,4.57161 1.28905,0.62794 1.81574,0.72808 3.85024,0.73214 2.00244,0.004 2.57934,-0.0994 3.83597,-0.68745 1.94973,-0.91237 3.49552,-2.50693 4.48191,-4.62338 l 0.8026,-1.72213 0.0516,-5.28564 c 0.0284,-2.90712 0.1438,-5.64063 0.25651,-6.07449 0.72283,-2.78238 3.31868,-5.60421 5.84507,-6.35386 0.81763,-0.24262 2.28258,-0.43179 3.25545,-0.42039 3.20689,0.0376 6.3994,2.07975 7.83908,5.01442 0.60275,1.22865 0.60593,1.29207 0.74368,14.77554 0.14656,14.3452 0.13434,14.20696 1.43962,16.30394 0.80082,1.28654 2.58673,2.8466 4.02038,3.51196 1.78048,0.82632 5.68894,0.80077 7.4003,-0.0484 1.95689,-0.97098 3.27037,-2.27954 4.20888,-4.19311 l 0.86211,-1.75776 0.0842,-13.02175 c 0.0578,-8.94049 -0.0122,-13.75242 -0.22357,-15.35299 -0.56874,-4.30702 -1.81009,-7.70904 -4.0417,-11.07657 -8.77873,-13.24725 -27.32052,-15.87553 -39.46443,-5.594 l -1.23079,1.04204 -1.78566,-1.42921 c -3.38584,-2.70997 -5.95707,-4.01895 -10.02957,-5.10594 -2.0764,-0.55423 -3.12788,-0.67085 -6.29039,-0.69768 -4.98434,-0.0422 -8.32829,0.67461 -12.14882,2.60456 -7.333146,3.70439 -12.206196,9.73985 -14.097736,17.46063 -0.51417,2.09869 -0.55276,3.08509 -0.63261,16.17102 -0.08,13.10204 -0.0553,14.02761 0.41159,15.46696 z"
       id="path1" /><path
       d="m 172.30266,78.999829 c -0.3083,-2.06e-4 -0.66456,0.01744 -1.10587,0.04599 -3.69689,0.23914 -2.93539,-0.398689 -20.16208,16.882691 -8.55749,8.584648 -15.73423,15.608868 -15.94787,15.608868 -0.21364,0 -7.33009,-6.96475 -15.81453,-15.477094 -17.19043,-17.24697 -16.72473,-16.855998 -20.26285,-17.029968 -3.66346,-0.18014 -6.750125,1.68751 -8.249625,4.99091 -0.62706,1.38141 -0.750859,2.000253 -0.750859,3.754293 0,4.033 -1.077124,2.751483 20.583244,24.488949 20.85796,20.93219 20.13738,20.29864 23.52931,20.69899 1.64254,0.19387 4.23494,-0.4003 5.79809,-1.3286 1.19118,-0.70739 37.83128,-37.444437 38.66586,-38.768177 0.29733,-0.47159 0.75363,-1.45548 1.01389,-2.18643 0.62565,-1.7572 0.50388,-4.776273 -0.26251,-6.506063 -0.81377,-1.83672 -2.67221,-3.689253 -4.54908,-4.535123 -1.06638,-0.4806 -1.56021,-0.638619 -2.48512,-0.639238 z"
       style="display:inline;fill:#63d3ff;stroke-width:0.990246;fill-opacity:1"
       id="path16" /></g></svg>
